<?xml version="1.0" encoding="UTF-8" standalone="no"?>
<!-- Created with Inkscape (http://www.inkscape.org/) -->

<svg
   xmlns:dc="http://purl.org/dc/elements/1.1/"
   xmlns:cc="http://creativecommons.org/ns#"
   xmlns:rdf="http://www.w3.org/1999/02/22-rdf-syntax-ns#"
   xmlns:svg="http://www.w3.org/2000/svg"
   xmlns="http://www.w3.org/2000/svg"
   xmlns:sodipodi="http://sodipodi.sourceforge.net/DTD/sodipodi-0.dtd"
   xmlns:inkscape="http://www.inkscape.org/namespaces/inkscape"
   width="93.045349mm"
   height="35.486378mm"
   viewBox="0 0 329.68824 125.73913"
   id="svg14271"
   version="1.1"
   inkscape:version="0.91 r13725"
   sodipodi:docname="tocu.svg">
  <defs
     id="defs14273" />
  <sodipodi:namedview
     id="base"
     pagecolor="#ffffff"
     bordercolor="#666666"
     borderopacity="1.0"
     inkscape:pageopacity="0.0"
     inkscape:pageshadow="2"
     inkscape:zoom="2.4047996"
     inkscape:cx="98.357295"
     inkscape:cy="109.96686"
     inkscape:document-units="px"
     inkscape:current-layer="layer1"
     showgrid="false"
     fit-margin-top="0"
     fit-margin-left="0"
     fit-margin-right="0"
     fit-margin-bottom="0"
     inkscape:window-width="956"
     inkscape:window-height="1037"
     inkscape:window-x="960"
     inkscape:window-y="41"
     inkscape:window-maximized="0" />
  <metadata
     id="metadata14276">
    <rdf:RDF>
      <cc:Work
         rdf:about="">
        <dc:format>image/svg+xml</dc:format>
        <dc:type
           rdf:resource="http://purl.org/dc/dcmitype/StillImage" />
        <dc:title />
      </cc:Work>
    </rdf:RDF>
  </metadata>
  <g
     inkscape:label="Capa 1"
     inkscape:groupmode="layer"
     id="layer1"
     transform="translate(37.439896,-489.04151)">
    <g
       transform="matrix(0.5089886,0,0,0.5089886,-501.96056,386.35174)"
       style="font-style:normal;font-variant:normal;font-weight:bold;font-stretch:normal;font-size:131.83409119px;line-height:125%;font-family:Lato;-inkscape-font-specification:'Lato, Bold';text-align:start;letter-spacing:0px;word-spacing:0px;writing-mode:lr-tb;text-anchor:start;display:inline;fill:#8ed6dd;fill-opacity:1;stroke:none;stroke-width:1px;stroke-linecap:butt;stroke-linejoin:miter;stroke-opacity:1"
       id="text5254">
      <path
         inkscape:connector-curvature="0"
         d="m 1185.2245,277.39138 0,14.56767 -28.7398,0 0,80.74838 -17.7317,0 0,-80.74838 -28.7398,0 0,-14.56767 75.2113,0 z"
         style="font-style:normal;font-variant:normal;font-weight:bold;font-stretch:normal;font-size:131.83409119px;line-height:125%;font-family:Lato;-inkscape-font-specification:'Lato, Bold';text-align:start;writing-mode:lr-tb;text-anchor:start;fill:#206268;fill-opacity:1"
         id="path14210" />
      <path
         inkscape:connector-curvature="0"
         d="m 1285.507,325.0494 q 0,10.48081 -3.4936,19.44553 -3.4277,8.8988 -9.7557,15.42459 -6.3281,6.52579 -15.2269,10.21714 -8.8988,3.62544 -19.7751,3.62544 -10.8104,0 -19.7092,-3.62544 -8.8988,-3.69135 -15.2927,-10.21714 -6.3281,-6.52579 -9.8217,-15.42459 -3.4936,-8.96472 -3.4936,-19.44553 0,-10.48081 3.4936,-19.37961 3.4936,-8.96472 9.8217,-15.4905 6.3939,-6.52579 15.2927,-10.15123 8.8988,-3.69135 19.7092,-3.69135 7.2509,0 13.6448,1.71384 6.394,1.64793 11.7333,4.74603 5.3393,3.03218 9.558,7.44862 4.2846,4.35053 7.2508,9.75573 2.9663,5.40519 4.4824,11.73323 1.582,6.32804 1.582,13.31524 z m -18.1272,0 q 0,-7.84412 -2.1093,-14.04033 -2.1094,-6.26212 -5.9985,-10.61264 -3.8891,-4.35053 -9.492,-6.65762 -5.5371,-2.3071 -12.5243,-2.3071 -6.9872,0 -12.5901,2.3071 -5.5371,2.30709 -9.4921,6.65762 -3.8891,4.35052 -5.9984,10.61264 -2.1094,6.19621 -2.1094,14.04033 0,7.84413 2.1094,14.10625 2.1093,6.1962 5.9984,10.54673 3.955,4.28461 9.4921,6.5917 5.6029,2.3071 12.5901,2.3071 6.9872,0 12.5243,-2.3071 5.6029,-2.30709 9.492,-6.5917 3.8891,-4.35053 5.9985,-10.54673 2.1093,-6.26212 2.1093,-14.10625 z"
         style="font-style:normal;font-variant:normal;font-weight:bold;font-stretch:normal;font-size:131.83409119px;line-height:125%;font-family:Lato;-inkscape-font-specification:'Lato, Bold';text-align:start;writing-mode:lr-tb;text-anchor:start;fill:#206268;fill-opacity:1"
         id="path14212" />
      <path
         inkscape:connector-curvature="0"
         d="m 1366.6632,350.22972 q 1.4502,0 2.5708,1.12059 l 6.9872,7.58046 q -5.8007,7.18495 -14.304,11.00814 -8.4374,3.82319 -20.3024,3.82319 -10.6127,0 -19.116,-3.62544 -8.4374,-3.62543 -14.4358,-10.0853 -5.9985,-6.45988 -9.2284,-15.42459 -3.164,-8.96472 -3.164,-19.57737 0,-10.74447 3.4277,-19.64328 3.4277,-8.96471 9.6239,-15.42458 6.2621,-6.45987 14.8972,-10.0194 8.6351,-3.62543 19.116,-3.62543 10.4148,0 18.4567,3.42768 8.1078,3.42769 13.7767,8.96472 l -5.9325,8.23963 q -0.5274,0.79101 -1.3843,1.38426 -0.791,0.59325 -2.2412,0.59325 -0.9887,0 -2.0434,-0.52733 -1.0547,-0.59326 -2.3071,-1.38426 -1.2524,-0.85692 -2.9004,-1.84568 -1.6479,-0.98875 -3.8231,-1.77976 -2.1753,-0.85692 -5.0757,-1.38426 -2.8344,-0.59325 -6.5917,-0.59325 -6.3939,0 -11.7332,2.3071 -5.2734,2.24118 -9.0965,6.5917 -3.8232,4.28461 -5.9326,10.54673 -2.1093,6.1962 -2.1093,14.17216 0,8.04188 2.2412,14.304 2.307,6.26212 6.1962,10.54673 3.8891,4.28461 9.1624,6.5917 5.2734,2.24118 11.3378,2.24118 3.6254,0 6.5257,-0.3955 2.9663,-0.3955 5.4052,-1.25242 2.5049,-0.85692 4.6801,-2.17526 2.2412,-1.38426 4.4165,-3.36177 0.6592,-0.59326 1.3842,-0.92284 0.7251,-0.3955 1.5161,-0.3955 z"
         style="font-style:normal;font-variant:normal;font-weight:bold;font-stretch:normal;font-size:131.83409119px;line-height:125%;font-family:Lato;-inkscape-font-specification:'Lato, Bold';text-align:start;writing-mode:lr-tb;text-anchor:start;fill:#206268;fill-opacity:1"
         id="path14214" />
      <path
         inkscape:connector-curvature="0"
         d="m 1426.8599,358.40343 q 5.1415,0 9.1625,-1.71384 4.0868,-1.71385 6.8554,-4.81195 2.7685,-3.0981 4.2186,-7.51454 1.5161,-4.41644 1.5161,-9.88756 l 0,-57.08416 17.7317,0 0,57.08416 q 0,8.5033 -2.7685,15.75418 -2.7026,7.18495 -7.8441,12.45832 -5.0756,5.20744 -12.3924,8.17371 -7.3168,2.90035 -16.4793,2.90035 -9.2284,0 -16.5452,-2.90035 -7.3168,-2.96627 -12.4583,-8.17371 -5.0756,-5.27337 -7.8441,-12.45832 -2.7026,-7.25088 -2.7026,-15.75418 l 0,-57.08416 17.7317,0 0,57.01824 q 0,5.47112 1.4501,9.88756 1.5161,4.41644 4.2847,7.58046 2.8344,3.0981 6.8553,4.81195 4.0869,1.71384 9.2284,1.71384 z"
         style="font-style:normal;font-variant:normal;font-weight:bold;font-stretch:normal;font-size:131.83409119px;line-height:125%;font-family:Lato;-inkscape-font-specification:'Lato, Bold';text-align:start;writing-mode:lr-tb;text-anchor:start;fill:#206268;fill-opacity:1"
         id="path14216" />
    </g>
    <g
       style="display:inline"
       transform="matrix(0.37350834,0,0,0.37350834,-338.43446,441.48184)"
       id="g14032">
      <path
         inkscape:connector-curvature="0"
         style="fill:#f1bc0f;fill-opacity:1"
         sodipodi:nodetypes="sssss"
         d="M 808.49695,255.71182 C 795.40687,362.47844 830.57723,396.58346 923.67161,385.44524 1001.3023,376.15715 1049.961,323.78946 1033.6924,249.72622 1009.1529,137.99521 982.39225,118.49376 926.32303,130.37892 854.64638,145.57093 818.27108,175.95664 808.49695,255.71182 Z"
         id="path3763-1-8" />
      <ellipse
         transform="matrix(-0.99440581,0.10562713,0.10562507,0.99440603,0,0)"
         style="fill:#ffffff"
         id="path3766-21-1"
         cx="-964.16296"
         cy="318.41425"
         rx="22.412813"
         ry="22.631651" />
      <path
         inkscape:connector-curvature="0"
         style="fill:#ffffff"
         sodipodi:nodetypes="sssss"
         d="m 898.55126,238.97525 c 0.91211,8.58693 11.52715,15.40702 22.181,14.27528 10.65384,-1.13167 17.31345,-9.78703 16.40051,-18.37405 -0.91211,-8.58693 -10.58218,-8.14876 -21.23603,-7.01712 -10.65384,1.13168 -18.25743,2.52836 -17.34548,11.11569 z"
         id="path3827-8-3" />
      <path
         inkscape:connector-curvature="0"
         style="fill:none;stroke:#ffffff;stroke-width:9.84877586;stroke-linecap:round;stroke-miterlimit:1.29999995;stroke-opacity:1"
         sodipodi:nodetypes="cc"
         d="m 944.37704,258.608 c -5.11575,11.6555 -14.7902,30.70785 -42.35264,6.54864"
         id="path3902-2-3" />
      <ellipse
         transform="matrix(-0.99440581,0.10562713,0.10562507,0.99440603,0,0)"
         style="fill:#ffffff"
         id="path3766-6-9-7"
         cx="-818.13379"
         cy="316.47256"
         rx="22.412813"
         ry="22.631651" />
      <ellipse
         transform="matrix(-0.99440591,0.10562612,0.10562701,0.99440582,0,0)"
         style="fill:#c1960b;fill-opacity:1"
         id="path3766-2-2-8-9"
         cx="-817.45715"
         cy="323.17722"
         rx="11.926836"
         ry="12.954008" />
      <ellipse
         transform="matrix(-0.99440591,0.10562612,0.105627,0.99440582,0,0)"
         style="fill:#c1960b;fill-opacity:1"
         id="path3766-2-2-8-9-1"
         cx="-965.62335"
         cy="324.04453"
         rx="11.926836"
         ry="12.954008" />
    </g>
    <g
       transform="matrix(0.5089886,0,0,0.5089886,-501.96056,386.35174)"
       style="font-style:normal;font-variant:normal;font-weight:normal;font-stretch:normal;font-size:67.98285675px;line-height:125%;font-family:Lato;-inkscape-font-specification:'Lato, Normal';text-align:start;letter-spacing:0px;word-spacing:0px;writing-mode:lr-tb;text-anchor:start;display:inline;fill:#c1960b;fill-opacity:1;stroke:none;stroke-width:1px;stroke-linecap:butt;stroke-linejoin:miter;stroke-opacity:1"
       id="text4707-2-3-4">
      <path
         inkscape:connector-curvature="0"
         d="m 1145.7308,431.38622 q 0,4.07897 -1.0197,7.30816 -0.9858,3.22918 -2.9573,5.47262 -1.9375,2.20944 -4.7928,3.39914 -2.8552,1.1897 -6.5603,1.1897 -3.3652,0 -6.8663,-0.95176 l 0.3399,-3.87502 q 0.068,-0.57786 0.4079,-0.91777 0.3739,-0.37391 1.1218,-0.37391 0.6118,0 1.5975,0.30592 1.0198,0.30593 2.7194,0.30593 2.2434,0 4.011,-0.67983 1.7675,-0.67983 2.9572,-2.10747 1.1897,-1.42764 1.8016,-3.63708 0.6458,-2.24344 0.6458,-5.30267 l 0,-32.01992 6.5943,0 0,31.88396 z"
         style="font-style:normal;font-variant:normal;font-weight:normal;font-stretch:normal;font-size:67.98285675px;line-height:125%;font-family:Lato;-inkscape-font-specification:'Lato, Normal';text-align:start;writing-mode:lr-tb;text-anchor:start;fill:#c1960b;fill-opacity:1"
         id="path14219" />
      <path
         inkscape:connector-curvature="0"
         d="m 1176.4166,442.9773 q 3.0252,0 5.4046,-1.01975 2.3794,-1.01974 4.011,-2.85528 1.6656,-1.83553 2.5154,-4.38489 0.8838,-2.54936 0.8838,-5.60859 l 0,-29.60653 6.5603,0 0,29.60653 q 0,4.21494 -1.3597,7.81803 -1.3256,3.60309 -3.841,6.25442 -2.4814,2.61734 -6.0845,4.11297 -3.603,1.49562 -8.0899,1.49562 -4.4869,0 -8.09,-1.49562 -3.6031,-1.49563 -6.1184,-4.11297 -2.5154,-2.65133 -3.8751,-6.25442 -1.3256,-3.60309 -1.3256,-7.81803 l 0,-29.60653 6.5603,0 0,29.57254 q 0,3.05923 0.8498,5.60859 0.8838,2.54935 2.5154,4.38489 1.6656,1.83554 4.045,2.88927 2.4133,1.01975 5.4386,1.01975 z"
         style="font-style:normal;font-variant:normal;font-weight:normal;font-stretch:normal;font-size:67.98285675px;line-height:125%;font-family:Lato;-inkscape-font-specification:'Lato, Normal';text-align:start;writing-mode:lr-tb;text-anchor:start;fill:#c1960b;fill-opacity:1"
         id="path14221" />
      <path
         inkscape:connector-curvature="0"
         d="m 1247.243,443.48717 q -3.671,2.65133 -7.852,3.97699 -4.1469,1.29168 -9.1097,1.29168 -5.8805,0 -10.6053,-1.80155 -4.7248,-1.83553 -8.09,-5.09871 -3.3311,-3.29717 -5.1327,-7.88601 -1.8015,-4.58885 -1.8015,-10.09546 0,-5.57459 1.7335,-10.16343 1.7676,-4.58885 4.9968,-7.85202 3.2292,-3.29717 7.852,-5.09872 4.6228,-1.80154 10.3334,-1.80154 2.8893,0 5.3706,0.44188 2.4814,0.4079 4.5889,1.2237 2.1075,0.7818 3.909,1.93751 1.8015,1.12171 3.3652,2.54935 l -1.8696,2.99125 q -0.4419,0.67983 -1.1557,0.88378 -0.6798,0.16995 -1.5296,-0.33992 -0.8158,-0.47588 -1.8695,-1.15571 -1.0538,-0.67982 -2.5834,-1.29167 -1.4956,-0.64584 -3.5691,-1.08773 -2.0395,-0.44188 -4.8607,-0.44188 -4.113,0 -7.4442,1.35965 -3.3311,1.32567 -5.6765,3.84103 -2.3454,2.48138 -3.6031,6.05048 -1.2577,3.53511 -1.2577,7.95399 0,4.58885 1.2917,8.22593 1.3256,3.60309 3.739,6.15245 2.4474,2.51536 5.9145,3.84103 3.4672,1.32566 7.7841,1.32566 1.6995,0 3.1612,-0.20394 1.4956,-0.20395 2.8552,-0.54387 1.3597,-0.3739 2.6174,-0.88377 1.2577,-0.54387 2.5493,-1.2237 l 0,-10.74129 -7.58,0 q -0.6459,0 -1.0538,-0.3739 -0.3739,-0.37391 -0.3739,-0.91777 l 0,-3.73906 14.9562,0 0,18.69529 0,0 z"
         style="font-style:normal;font-variant:normal;font-weight:normal;font-stretch:normal;font-size:67.98285675px;line-height:125%;font-family:Lato;-inkscape-font-specification:'Lato, Normal';text-align:start;writing-mode:lr-tb;text-anchor:start;fill:#c1960b;fill-opacity:1"
         id="path14223" />
      <path
         inkscape:connector-curvature="0"
         d="m 1296.4053,448.21198 -5.0987,0 q -0.8838,0 -1.4277,-0.44189 -0.5438,-0.44189 -0.8158,-1.12172 l -4.5548,-11.76103 -21.8565,0 -4.5549,11.76103 q -0.2039,0.61185 -0.7818,1.08773 -0.5778,0.47588 -1.4276,0.47588 l -5.0987,0 19.4771,-48.70972 6.6623,0 19.4771,48.70972 z m -31.918,-18.08344 18.1854,0 -7.648,-19.81701 q -0.3739,-0.88377 -0.7479,-2.03948 -0.3399,-1.15571 -0.7138,-2.48138 -0.3399,1.32567 -0.7138,2.51537 -0.3399,1.15571 -0.7138,2.03948 l -7.6481,19.78302 z"
         style="font-style:normal;font-variant:normal;font-weight:normal;font-stretch:normal;font-size:67.98285675px;line-height:125%;font-family:Lato;-inkscape-font-specification:'Lato, Normal';text-align:start;writing-mode:lr-tb;text-anchor:start;fill:#c1960b;fill-opacity:1"
         id="path14225" />
      <path
         inkscape:connector-curvature="0"
         d="m 1324.6107,448.21198 -6.5943,0 0,-48.70972 6.5943,0 0,48.70972 z"
         style="font-style:normal;font-variant:normal;font-weight:normal;font-stretch:normal;font-size:67.98285675px;line-height:125%;font-family:Lato;-inkscape-font-specification:'Lato, Normal';text-align:start;writing-mode:lr-tb;text-anchor:start;fill:#c1960b;fill-opacity:1"
         id="path14227" />
      <path
         inkscape:connector-curvature="0"
         d="m 1391.7406,448.21198 -5.0987,0 q -0.8838,0 -1.4277,-0.44189 -0.5438,-0.44189 -0.8158,-1.12172 l -4.5548,-11.76103 -21.8565,0 -4.5548,11.76103 q -0.204,0.61185 -0.7818,1.08773 -0.5779,0.47588 -1.4277,0.47588 l -5.0987,0 19.4771,-48.70972 6.6623,0 19.4771,48.70972 z m -31.918,-18.08344 18.1855,0 -7.6481,-19.81701 q -0.3739,-0.88377 -0.7478,-2.03948 -0.3399,-1.15571 -0.7138,-2.48138 -0.34,1.32567 -0.7139,2.51537 -0.3399,1.15571 -0.7138,2.03948 l -7.6481,19.78302 z"
         style="font-style:normal;font-variant:normal;font-weight:normal;font-stretch:normal;font-size:67.98285675px;line-height:125%;font-family:Lato;-inkscape-font-specification:'Lato, Normal';text-align:start;writing-mode:lr-tb;text-anchor:start;fill:#c1960b;fill-opacity:1"
         id="path14229" />
      <path
         inkscape:connector-curvature="0"
         d="m 1404.7753,429.99257 0,18.21941 -6.5604,0 0,-48.70972 14.3784,0 q 4.6228,0 8.022,1.08772 3.4331,1.05374 5.6765,3.02524 2.2435,1.9715 3.3312,4.7588 1.1217,2.7873 1.1217,6.22043 0,3.39915 -1.1897,6.22043 -1.1897,2.82129 -3.5011,4.86078 -2.2774,2.03948 -5.6766,3.19519 -3.3651,1.12172 -7.784,1.12172 l -7.818,0 z m 0,-5.23468 7.818,0 q 2.8213,0 4.9627,-0.74781 2.1755,-0.74781 3.6371,-2.07348 1.4956,-1.35966 2.2434,-3.22918 0.7479,-1.86953 0.7479,-4.11297 0,-4.65682 -2.8893,-7.27416 -2.8553,-2.61734 -8.7018,-2.61734 l -7.818,0 0,20.05494 z"
         style="font-style:normal;font-variant:normal;font-weight:normal;font-stretch:normal;font-size:67.98285675px;line-height:125%;font-family:Lato;-inkscape-font-specification:'Lato, Normal';text-align:start;writing-mode:lr-tb;text-anchor:start;fill:#c1960b;fill-opacity:1"
         id="path14231" />
      <path
         inkscape:connector-curvature="0"
         d="m 1445.5384,427.8851 0,20.32688 -6.5603,0 0,-48.70972 13.7665,0 q 4.6228,0 7.988,0.95176 3.3651,0.91777 5.5406,2.68532 2.2094,1.76756 3.2632,4.28292 1.0537,2.48138 1.0537,5.5746 0,2.58334 -0.8158,4.82678 -0.8158,2.24343 -2.3794,4.04498 -1.5296,1.76755 -3.7731,3.05923 -2.2094,1.25768 -5.0307,1.86953 1.2917,0.81579 2.1755,2.07347 l 14.2084,19.34113 -5.8465,0 q -1.8016,0 -2.6514,-1.39365 l -12.6448,-17.40361 q -0.5778,-0.8158 -1.2577,-1.15571 -0.6458,-0.37391 -2.0395,-0.37391 l -4.9967,0 z m 0,-4.79279 6.9343,0 q 2.8552,0 5.0307,-0.67983 2.2094,-0.71382 3.6711,-1.9715 1.4956,-1.29168 2.2434,-3.05923 0.7478,-1.76755 0.7478,-3.90901 0,-4.35091 -2.8553,-6.56035 -2.8553,-2.20944 -8.5658,-2.20944 l -7.2062,0 0,18.38936 z"
         style="font-style:normal;font-variant:normal;font-weight:normal;font-stretch:normal;font-size:67.98285675px;line-height:125%;font-family:Lato;-inkscape-font-specification:'Lato, Normal';text-align:start;writing-mode:lr-tb;text-anchor:start;fill:#c1960b;fill-opacity:1"
         id="path14233" />
      <path
         inkscape:connector-curvature="0"
         d="m 1481.6001,448.21198 0,0 z m 30.0145,-48.70972 0,5.37064 -23.4201,0 0,16.17992 18.9672,0 0,5.1667 -18.9672,0 0,16.62181 23.4541,0 -0.034,5.37065 -30.0145,0 0,-48.70972 30.0145,0 z m -20.5988,-14.24241 q 1.1217,0 1.6995,0.16996 0.5779,0.16995 1.1557,0.91777 l 7.7501,9.31365 -4.3509,0 q -0.7478,0 -1.1897,-0.068 -0.4079,-0.10197 -0.9178,-0.57785 l -10.6053,-9.75554 6.4584,0 z"
         style="font-style:normal;font-variant:normal;font-weight:normal;font-stretch:normal;font-size:67.98285675px;line-height:125%;font-family:Lato;-inkscape-font-specification:'Lato, Normal';text-align:start;writing-mode:lr-tb;text-anchor:start;fill:#c1960b;fill-opacity:1"
         id="path14235" />
      <path
         inkscape:connector-curvature="0"
         d="m 1524.3019,399.50226 q 0.4418,0 0.7478,0.068 0.3059,0.034 0.5438,0.16996 0.238,0.10197 0.4759,0.33991 0.2379,0.20395 0.5099,0.54387 l 28.1789,36.67675 q -0.068,-0.88378 -0.136,-1.69957 -0.034,-0.84979 -0.034,-1.5976 l 0,-34.5013 5.7786,0 0,48.70972 -3.2972,0 q -0.7818,0 -1.3257,-0.27194 -0.5098,-0.27193 -1.0197,-0.91776 l -28.1789,-36.67676 q 0.068,0.84979 0.102,1.66558 0.034,0.8158 0.034,1.49563 l 0,34.70525 -5.7786,0 0,-48.70972 3.3992,0 0,0 z"
         style="font-style:normal;font-variant:normal;font-weight:normal;font-stretch:normal;font-size:67.98285675px;line-height:125%;font-family:Lato;-inkscape-font-specification:'Lato, Normal';text-align:start;writing-mode:lr-tb;text-anchor:start;fill:#c1960b;fill-opacity:1"
         id="path14237" />
    </g>
    <ellipse
       style="color:#000000;clip-rule:nonzero;display:inline;overflow:visible;visibility:visible;opacity:1;isolation:auto;mix-blend-mode:normal;color-interpolation:sRGB;color-interpolation-filters:linearRGB;solid-color:#000000;solid-opacity:1;fill:#f1bc0f;fill-opacity:1;fill-rule:nonzero;stroke:none;stroke-width:1;stroke-linecap:round;stroke-linejoin:miter;stroke-miterlimit:4;stroke-dasharray:none;stroke-dashoffset:0;stroke-opacity:1;color-rendering:auto;image-rendering:auto;shape-rendering:auto;text-rendering:auto;enable-background:accumulate"
       id="path6680-4"
       cx="-68.166313"
       cy="579.54633"
       rx="5.6092119"
       ry="11.793728"
       transform="matrix(0.99616995,-0.08743814,0.08743814,0.99616995,0,0)" />
    <ellipse
       style="color:#000000;clip-rule:nonzero;display:inline;overflow:visible;visibility:visible;opacity:1;isolation:auto;mix-blend-mode:normal;color-interpolation:sRGB;color-interpolation-filters:linearRGB;solid-color:#000000;solid-opacity:1;fill:#f1bc0f;fill-opacity:1;fill-rule:nonzero;stroke:none;stroke-width:1;stroke-linecap:round;stroke-linejoin:miter;stroke-miterlimit:4;stroke-dasharray:none;stroke-dashoffset:0;stroke-opacity:1;color-rendering:auto;image-rendering:auto;shape-rendering:auto;text-rendering:auto;enable-background:accumulate"
       id="path6680-1-8"
       cx="193.71494"
       cy="546.51312"
       rx="5.0339084"
       ry="11.793728"
       transform="matrix(0.95933445,0.28227187,-0.28227187,0.95933445,0,0)" />
  </g>
</svg>
